<mxfile host="Electron" agent="Mozilla/5.0 (Windows NT 10.0; Win64; x64) AppleWebKit/537.36 (KHTML, like Gecko) draw.io/26.0.7 Chrome/128.0.6613.186 Electron/32.2.5 Safari/537.36" version="26.0.7">
  <diagram name="Ver1.0(171RR検証)" id="FV4QGoX4zU9mgjPyjUHh">
    <mxGraphModel dx="1434" dy="836" grid="0" gridSize="10" guides="1" tooltips="1" connect="1" arrows="1" fold="1" page="1" pageScale="1" pageWidth="1169" pageHeight="827" math="0" shadow="0">
      <root>
        <mxCell id="0" />
        <mxCell id="1" parent="0" />
        <mxCell id="d4zinTMnPMJTzQzroGFV-42" style="edgeStyle=orthogonalEdgeStyle;rounded=0;orthogonalLoop=1;jettySize=auto;html=1;exitX=0.5;exitY=1;exitDx=0;exitDy=0;exitPerimeter=0;" edge="1" parent="1" source="d4zinTMnPMJTzQzroGFV-4">
          <mxGeometry relative="1" as="geometry">
            <mxPoint x="110.31034482758628" y="156.1034482758621" as="targetPoint" />
          </mxGeometry>
        </mxCell>
        <mxCell id="d4zinTMnPMJTzQzroGFV-4" value="Suicaを&lt;div&gt;発行出来ない&lt;/div&gt;" style="strokeWidth=2;html=1;shape=mxgraph.flowchart.terminator;whiteSpace=wrap;fillColor=#f8cecc;strokeColor=#b85450;" vertex="1" parent="1">
          <mxGeometry x="60" y="30" width="100" height="60" as="geometry" />
        </mxCell>
        <mxCell id="d4zinTMnPMJTzQzroGFV-5" value="Suica&lt;div&gt;を発行出来た&lt;/div&gt;" style="strokeWidth=2;html=1;shape=mxgraph.flowchart.terminator;whiteSpace=wrap;fillColor=#d5e8d4;strokeColor=#82b366;" vertex="1" parent="1">
          <mxGeometry x="60" y="741" width="100" height="60" as="geometry" />
        </mxCell>
        <mxCell id="d4zinTMnPMJTzQzroGFV-10" style="edgeStyle=orthogonalEdgeStyle;rounded=0;orthogonalLoop=1;jettySize=auto;html=1;exitX=1;exitY=0.5;exitDx=0;exitDy=0;exitPerimeter=0;" edge="1" parent="1" source="d4zinTMnPMJTzQzroGFV-6" target="d4zinTMnPMJTzQzroGFV-9">
          <mxGeometry relative="1" as="geometry" />
        </mxCell>
        <mxCell id="d4zinTMnPMJTzQzroGFV-18" style="edgeStyle=orthogonalEdgeStyle;rounded=0;orthogonalLoop=1;jettySize=auto;html=1;exitX=0.5;exitY=1;exitDx=0;exitDy=0;exitPerimeter=0;entryX=0.5;entryY=0;entryDx=0;entryDy=0;" edge="1" parent="1" source="d4zinTMnPMJTzQzroGFV-6" target="d4zinTMnPMJTzQzroGFV-17">
          <mxGeometry relative="1" as="geometry" />
        </mxCell>
        <mxCell id="d4zinTMnPMJTzQzroGFV-6" value="前のSuica&lt;div&gt;有無?&lt;/div&gt;" style="strokeWidth=2;html=1;shape=mxgraph.flowchart.decision;whiteSpace=wrap;fillColor=#ffe6cc;strokeColor=#d79b00;" vertex="1" parent="1">
          <mxGeometry x="60" y="157" width="100" height="70" as="geometry" />
        </mxCell>
        <mxCell id="d4zinTMnPMJTzQzroGFV-48" value="" style="edgeStyle=orthogonalEdgeStyle;rounded=0;orthogonalLoop=1;jettySize=auto;html=1;" edge="1" parent="1" source="d4zinTMnPMJTzQzroGFV-8" target="d4zinTMnPMJTzQzroGFV-47">
          <mxGeometry relative="1" as="geometry" />
        </mxCell>
        <mxCell id="d4zinTMnPMJTzQzroGFV-8" value="Googleアカウント&lt;div&gt;国情報変更&lt;/div&gt;" style="rounded=1;whiteSpace=wrap;html=1;absoluteArcSize=1;arcSize=14;strokeWidth=2;fillColor=#1ba1e2;strokeColor=#006EAF;fontColor=#ffffff;" vertex="1" parent="1">
          <mxGeometry x="210" y="305" width="107" height="50" as="geometry" />
        </mxCell>
        <mxCell id="d4zinTMnPMJTzQzroGFV-9" value="前のSuica&lt;div&gt;払戻手続&lt;/div&gt;" style="rounded=1;whiteSpace=wrap;html=1;absoluteArcSize=1;arcSize=14;strokeWidth=2;fillColor=#1ba1e2;strokeColor=#006EAF;fontColor=#ffffff;" vertex="1" parent="1">
          <mxGeometry x="210" y="167" width="100" height="50" as="geometry" />
        </mxCell>
        <mxCell id="d4zinTMnPMJTzQzroGFV-13" value="有" style="text;html=1;align=center;verticalAlign=middle;whiteSpace=wrap;rounded=0;" vertex="1" parent="1">
          <mxGeometry x="150" y="167" width="60" height="30" as="geometry" />
        </mxCell>
        <mxCell id="d4zinTMnPMJTzQzroGFV-15" value="無" style="text;html=1;align=center;verticalAlign=middle;whiteSpace=wrap;rounded=0;" vertex="1" parent="1">
          <mxGeometry x="68" y="226" width="60" height="30" as="geometry" />
        </mxCell>
        <mxCell id="d4zinTMnPMJTzQzroGFV-16" value="Ver1.0(171RR検証)" style="text;html=1;align=center;verticalAlign=middle;whiteSpace=wrap;rounded=0;fontSize=20;" vertex="1" parent="1">
          <mxGeometry x="160" width="180" height="30" as="geometry" />
        </mxCell>
        <mxCell id="d4zinTMnPMJTzQzroGFV-19" style="edgeStyle=orthogonalEdgeStyle;rounded=0;orthogonalLoop=1;jettySize=auto;html=1;exitX=1;exitY=0.5;exitDx=0;exitDy=0;entryX=0;entryY=0.5;entryDx=0;entryDy=0;" edge="1" parent="1" source="d4zinTMnPMJTzQzroGFV-17" target="d4zinTMnPMJTzQzroGFV-8">
          <mxGeometry relative="1" as="geometry" />
        </mxCell>
        <mxCell id="d4zinTMnPMJTzQzroGFV-74" style="edgeStyle=orthogonalEdgeStyle;rounded=0;orthogonalLoop=1;jettySize=auto;html=1;exitX=1;exitY=0.5;exitDx=0;exitDy=0;entryX=0;entryY=0.5;entryDx=0;entryDy=0;" edge="1" parent="1" source="d4zinTMnPMJTzQzroGFV-17" target="d4zinTMnPMJTzQzroGFV-72">
          <mxGeometry relative="1" as="geometry">
            <Array as="points">
              <mxPoint x="185" y="330" />
              <mxPoint x="185" y="407" />
            </Array>
          </mxGeometry>
        </mxCell>
        <mxCell id="d4zinTMnPMJTzQzroGFV-81" style="edgeStyle=orthogonalEdgeStyle;rounded=0;orthogonalLoop=1;jettySize=auto;html=1;exitX=0.5;exitY=1;exitDx=0;exitDy=0;" edge="1" parent="1" source="d4zinTMnPMJTzQzroGFV-17" target="d4zinTMnPMJTzQzroGFV-68">
          <mxGeometry relative="1" as="geometry" />
        </mxCell>
        <mxCell id="d4zinTMnPMJTzQzroGFV-17" value="Suica&lt;div&gt;発行ボタン&lt;/div&gt;&lt;div&gt;有無?&lt;/div&gt;" style="rhombus;whiteSpace=wrap;html=1;fillColor=#ffe6cc;strokeColor=#d79b00;strokeWidth=2;" vertex="1" parent="1">
          <mxGeometry x="60" y="290" width="100" height="80" as="geometry" />
        </mxCell>
        <mxCell id="d4zinTMnPMJTzQzroGFV-20" value="無" style="text;html=1;align=center;verticalAlign=middle;whiteSpace=wrap;rounded=0;" vertex="1" parent="1">
          <mxGeometry x="140" y="307" width="60" height="30" as="geometry" />
        </mxCell>
        <mxCell id="d4zinTMnPMJTzQzroGFV-21" value="有" style="text;html=1;align=center;verticalAlign=middle;whiteSpace=wrap;rounded=0;" vertex="1" parent="1">
          <mxGeometry x="70" y="364" width="60" height="32" as="geometry" />
        </mxCell>
        <mxCell id="d4zinTMnPMJTzQzroGFV-26" style="edgeStyle=orthogonalEdgeStyle;rounded=0;orthogonalLoop=1;jettySize=auto;html=1;exitX=1;exitY=0.5;exitDx=0;exitDy=0;entryX=0;entryY=0.5;entryDx=0;entryDy=0;" edge="1" parent="1" source="d4zinTMnPMJTzQzroGFV-23" target="d4zinTMnPMJTzQzroGFV-25">
          <mxGeometry relative="1" as="geometry" />
        </mxCell>
        <mxCell id="d4zinTMnPMJTzQzroGFV-23" value="fitbitアプリ&lt;div&gt;にて&lt;/div&gt;&lt;div&gt;払戻OK?&lt;/div&gt;" style="rhombus;whiteSpace=wrap;html=1;fillColor=#ffe6cc;strokeColor=#d79b00;strokeWidth=2;" vertex="1" parent="1">
          <mxGeometry x="340" y="149.5" width="110" height="85" as="geometry" />
        </mxCell>
        <mxCell id="d4zinTMnPMJTzQzroGFV-24" style="edgeStyle=orthogonalEdgeStyle;rounded=0;orthogonalLoop=1;jettySize=auto;html=1;exitX=1;exitY=0.5;exitDx=0;exitDy=0;entryX=0.044;entryY=0.489;entryDx=0;entryDy=0;entryPerimeter=0;" edge="1" parent="1" source="d4zinTMnPMJTzQzroGFV-9" target="d4zinTMnPMJTzQzroGFV-23">
          <mxGeometry relative="1" as="geometry" />
        </mxCell>
        <mxCell id="d4zinTMnPMJTzQzroGFV-25" value="fitbit公式サポート&lt;span style=&quot;background-color: transparent; color: light-dark(rgb(255, 255, 255), rgb(18, 18, 18));&quot;&gt;にて&lt;/span&gt;&lt;div&gt;&lt;span style=&quot;background-color: transparent; color: light-dark(rgb(255, 255, 255), rgb(18, 18, 18));&quot;&gt;払戻番号発行&lt;/span&gt;&lt;span style=&quot;background-color: transparent; color: light-dark(rgb(255, 255, 255), rgb(18, 18, 18));&quot;&gt;してもらい,&lt;/span&gt;&lt;div&gt;JR東サイト&lt;span style=&quot;background-color: transparent; color: light-dark(rgb(255, 255, 255), rgb(18, 18, 18));&quot;&gt;にて&lt;/span&gt;&lt;/div&gt;&lt;div&gt;&lt;span style=&quot;background-color: transparent; color: light-dark(rgb(255, 255, 255), rgb(18, 18, 18));&quot;&gt;自身で&lt;/span&gt;&lt;span style=&quot;background-color: transparent; color: light-dark(rgb(255, 255, 255), rgb(18, 18, 18));&quot;&gt;払戻手続&lt;/span&gt;&lt;/div&gt;&lt;/div&gt;" style="rounded=1;whiteSpace=wrap;html=1;absoluteArcSize=1;arcSize=14;strokeWidth=2;fillColor=#1ba1e2;strokeColor=#006EAF;fontColor=#ffffff;" vertex="1" parent="1">
          <mxGeometry x="501" y="160" width="140" height="65" as="geometry" />
        </mxCell>
        <mxCell id="d4zinTMnPMJTzQzroGFV-28" value="OK" style="text;html=1;align=center;verticalAlign=middle;whiteSpace=wrap;rounded=0;" vertex="1" parent="1">
          <mxGeometry x="518" y="127" width="60" height="30" as="geometry" />
        </mxCell>
        <mxCell id="d4zinTMnPMJTzQzroGFV-29" value="NG" style="text;html=1;align=center;verticalAlign=middle;whiteSpace=wrap;rounded=0;" vertex="1" parent="1">
          <mxGeometry x="442" y="167" width="60" height="30" as="geometry" />
        </mxCell>
        <mxCell id="d4zinTMnPMJTzQzroGFV-22" value="fitbit公式サポート&lt;div&gt;にしか出来ない&lt;/div&gt;" style="shape=callout;whiteSpace=wrap;html=1;perimeter=calloutPerimeter;fillColor=#d5e8d4;strokeColor=#82b366;position2=0.05;size=48;position=0.32;" vertex="1" parent="1">
          <mxGeometry x="590" y="79" width="105" height="84" as="geometry" />
        </mxCell>
        <mxCell id="d4zinTMnPMJTzQzroGFV-43" style="edgeStyle=orthogonalEdgeStyle;rounded=0;orthogonalLoop=1;jettySize=auto;html=1;exitX=0.5;exitY=0;exitDx=0;exitDy=0;entryX=0.5;entryY=0;entryDx=0;entryDy=0;entryPerimeter=0;" edge="1" parent="1" source="d4zinTMnPMJTzQzroGFV-23" target="d4zinTMnPMJTzQzroGFV-6">
          <mxGeometry relative="1" as="geometry">
            <Array as="points">
              <mxPoint x="395" y="129" />
              <mxPoint x="110" y="129" />
            </Array>
          </mxGeometry>
        </mxCell>
        <mxCell id="d4zinTMnPMJTzQzroGFV-44" style="edgeStyle=orthogonalEdgeStyle;rounded=0;orthogonalLoop=1;jettySize=auto;html=1;exitX=0.5;exitY=0;exitDx=0;exitDy=0;entryX=0.5;entryY=0;entryDx=0;entryDy=0;entryPerimeter=0;" edge="1" parent="1" source="d4zinTMnPMJTzQzroGFV-25" target="d4zinTMnPMJTzQzroGFV-6">
          <mxGeometry relative="1" as="geometry">
            <Array as="points">
              <mxPoint x="571" y="129" />
              <mxPoint x="110" y="129" />
            </Array>
          </mxGeometry>
        </mxCell>
        <mxCell id="d4zinTMnPMJTzQzroGFV-45" value="OK" style="text;html=1;align=center;verticalAlign=middle;whiteSpace=wrap;rounded=0;" vertex="1" parent="1">
          <mxGeometry x="378" y="127" width="60" height="30" as="geometry" />
        </mxCell>
        <mxCell id="d4zinTMnPMJTzQzroGFV-46" value="前のSuicaを&lt;div&gt;削除するまでループ&lt;/div&gt;" style="shape=callout;whiteSpace=wrap;html=1;perimeter=calloutPerimeter;fillColor=#d5e8d4;strokeColor=#82b366;position2=0.27;" vertex="1" parent="1">
          <mxGeometry x="190" y="57" width="114" height="70" as="geometry" />
        </mxCell>
        <mxCell id="d4zinTMnPMJTzQzroGFV-50" style="edgeStyle=orthogonalEdgeStyle;rounded=0;orthogonalLoop=1;jettySize=auto;html=1;exitX=1;exitY=0.5;exitDx=0;exitDy=0;entryX=0;entryY=0.5;entryDx=0;entryDy=0;" edge="1" parent="1" source="d4zinTMnPMJTzQzroGFV-47" target="d4zinTMnPMJTzQzroGFV-49">
          <mxGeometry relative="1" as="geometry" />
        </mxCell>
        <mxCell id="d4zinTMnPMJTzQzroGFV-61" style="edgeStyle=orthogonalEdgeStyle;rounded=0;orthogonalLoop=1;jettySize=auto;html=1;exitX=0.5;exitY=1;exitDx=0;exitDy=0;entryX=0.5;entryY=1;entryDx=0;entryDy=0;" edge="1" parent="1" source="d4zinTMnPMJTzQzroGFV-47" target="d4zinTMnPMJTzQzroGFV-51">
          <mxGeometry relative="1" as="geometry" />
        </mxCell>
        <mxCell id="d4zinTMnPMJTzQzroGFV-47" value="個人設定&lt;br&gt;国=日本?" style="rhombus;whiteSpace=wrap;html=1;fillColor=#ffe6cc;strokeColor=#d79b00;strokeWidth=2;" vertex="1" parent="1">
          <mxGeometry x="350" y="290" width="80" height="80" as="geometry" />
        </mxCell>
        <mxCell id="d4zinTMnPMJTzQzroGFV-52" style="edgeStyle=orthogonalEdgeStyle;rounded=0;orthogonalLoop=1;jettySize=auto;html=1;exitX=1;exitY=0.5;exitDx=0;exitDy=0;entryX=0;entryY=0.5;entryDx=0;entryDy=0;" edge="1" parent="1" source="d4zinTMnPMJTzQzroGFV-49" target="d4zinTMnPMJTzQzroGFV-51">
          <mxGeometry relative="1" as="geometry" />
        </mxCell>
        <mxCell id="d4zinTMnPMJTzQzroGFV-49" value="Googleアカウント&lt;div&gt;国情報=海外(退避)&lt;/div&gt;" style="rounded=1;whiteSpace=wrap;html=1;absoluteArcSize=1;arcSize=14;strokeWidth=2;fillColor=#1ba1e2;strokeColor=#006EAF;fontColor=#ffffff;" vertex="1" parent="1">
          <mxGeometry x="461" y="305" width="107" height="50" as="geometry" />
        </mxCell>
        <mxCell id="d4zinTMnPMJTzQzroGFV-64" style="edgeStyle=orthogonalEdgeStyle;rounded=0;orthogonalLoop=1;jettySize=auto;html=1;exitX=1;exitY=0.5;exitDx=0;exitDy=0;" edge="1" parent="1" source="d4zinTMnPMJTzQzroGFV-51" target="d4zinTMnPMJTzQzroGFV-53">
          <mxGeometry relative="1" as="geometry">
            <mxPoint x="707.0769230769231" y="329.96153846153845" as="targetPoint" />
          </mxGeometry>
        </mxCell>
        <mxCell id="d4zinTMnPMJTzQzroGFV-51" value="Googleアカウント&lt;div&gt;国情報=日本&lt;/div&gt;" style="rounded=1;whiteSpace=wrap;html=1;absoluteArcSize=1;arcSize=14;strokeWidth=2;fillColor=#1ba1e2;strokeColor=#006EAF;fontColor=#ffffff;" vertex="1" parent="1">
          <mxGeometry x="585" y="305" width="107" height="50" as="geometry" />
        </mxCell>
        <mxCell id="d4zinTMnPMJTzQzroGFV-56" style="edgeStyle=orthogonalEdgeStyle;rounded=0;orthogonalLoop=1;jettySize=auto;html=1;exitX=1;exitY=0.5;exitDx=0;exitDy=0;entryX=0;entryY=0.5;entryDx=0;entryDy=0;" edge="1" parent="1" source="d4zinTMnPMJTzQzroGFV-53" target="d4zinTMnPMJTzQzroGFV-55">
          <mxGeometry relative="1" as="geometry" />
        </mxCell>
        <mxCell id="d4zinTMnPMJTzQzroGFV-53" value="Googleアカウント&lt;div&gt;ログアウト&lt;/div&gt;" style="rounded=1;whiteSpace=wrap;html=1;absoluteArcSize=1;arcSize=14;strokeWidth=2;fillColor=#1ba1e2;strokeColor=#006EAF;fontColor=#ffffff;" vertex="1" parent="1">
          <mxGeometry x="709" y="305" width="107" height="50" as="geometry" />
        </mxCell>
        <mxCell id="d4zinTMnPMJTzQzroGFV-58" style="edgeStyle=orthogonalEdgeStyle;rounded=0;orthogonalLoop=1;jettySize=auto;html=1;exitX=0.5;exitY=0;exitDx=0;exitDy=0;entryX=0.5;entryY=0;entryDx=0;entryDy=0;" edge="1" parent="1" source="d4zinTMnPMJTzQzroGFV-55" target="d4zinTMnPMJTzQzroGFV-17">
          <mxGeometry relative="1" as="geometry">
            <Array as="points">
              <mxPoint x="887" y="265" />
              <mxPoint x="110" y="265" />
            </Array>
          </mxGeometry>
        </mxCell>
        <mxCell id="d4zinTMnPMJTzQzroGFV-55" value="Googleアカウント&lt;div&gt;ログイン(再)&lt;/div&gt;" style="rounded=1;whiteSpace=wrap;html=1;absoluteArcSize=1;arcSize=14;strokeWidth=2;fillColor=#1ba1e2;strokeColor=#006EAF;fontColor=#ffffff;" vertex="1" parent="1">
          <mxGeometry x="833" y="305" width="107" height="50" as="geometry" />
        </mxCell>
        <mxCell id="d4zinTMnPMJTzQzroGFV-59" value="Yes" style="text;html=1;align=center;verticalAlign=middle;whiteSpace=wrap;rounded=0;" vertex="1" parent="1">
          <mxGeometry x="413" y="305" width="60" height="30" as="geometry" />
        </mxCell>
        <mxCell id="d4zinTMnPMJTzQzroGFV-60" value="No" style="text;html=1;align=center;verticalAlign=middle;whiteSpace=wrap;rounded=0;" vertex="1" parent="1">
          <mxGeometry x="380" y="366" width="76" height="30" as="geometry" />
        </mxCell>
        <mxCell id="d4zinTMnPMJTzQzroGFV-65" value="fitbit公式サポート&lt;div&gt;へ相談&lt;/div&gt;" style="rounded=1;whiteSpace=wrap;html=1;absoluteArcSize=1;arcSize=14;strokeWidth=2;fillColor=#1ba1e2;strokeColor=#006EAF;fontColor=#ffffff;" vertex="1" parent="1">
          <mxGeometry x="210" y="459" width="107" height="50" as="geometry" />
        </mxCell>
        <mxCell id="d4zinTMnPMJTzQzroGFV-66" style="edgeStyle=orthogonalEdgeStyle;rounded=0;orthogonalLoop=1;jettySize=auto;html=1;exitX=1;exitY=0.5;exitDx=0;exitDy=0;entryX=-0.004;entryY=0.604;entryDx=0;entryDy=0;entryPerimeter=0;" edge="1" parent="1" source="d4zinTMnPMJTzQzroGFV-17" target="d4zinTMnPMJTzQzroGFV-65">
          <mxGeometry relative="1" as="geometry" />
        </mxCell>
        <mxCell id="d4zinTMnPMJTzQzroGFV-67" value="&lt;div&gt;それでも&lt;/div&gt;&lt;div&gt;出来ない&lt;/div&gt;" style="text;html=1;align=center;verticalAlign=middle;whiteSpace=wrap;rounded=0;" vertex="1" parent="1">
          <mxGeometry x="183" y="418" width="60" height="30" as="geometry" />
        </mxCell>
        <mxCell id="d4zinTMnPMJTzQzroGFV-83" style="edgeStyle=orthogonalEdgeStyle;rounded=0;orthogonalLoop=1;jettySize=auto;html=1;exitX=0.5;exitY=1;exitDx=0;exitDy=0;" edge="1" parent="1" source="d4zinTMnPMJTzQzroGFV-68" target="d4zinTMnPMJTzQzroGFV-82">
          <mxGeometry relative="1" as="geometry" />
        </mxCell>
        <mxCell id="d4zinTMnPMJTzQzroGFV-68" value="Suica発行&lt;div&gt;ボタンを押す&lt;/div&gt;" style="rounded=1;whiteSpace=wrap;html=1;fillColor=#1ba1e2;strokeColor=#006EAF;strokeWidth=2;fontColor=#ffffff;" vertex="1" parent="1">
          <mxGeometry x="50" y="507" width="120" height="60" as="geometry" />
        </mxCell>
        <mxCell id="d4zinTMnPMJTzQzroGFV-69" value="Suicaボタンが&lt;div&gt;出るまでループ&lt;/div&gt;" style="shape=callout;whiteSpace=wrap;html=1;perimeter=calloutPerimeter;fillColor=#d5e8d4;strokeColor=#82b366;position2=0.27;" vertex="1" parent="1">
          <mxGeometry x="835" y="192" width="114" height="70" as="geometry" />
        </mxCell>
        <mxCell id="d4zinTMnPMJTzQzroGFV-75" style="edgeStyle=orthogonalEdgeStyle;rounded=0;orthogonalLoop=1;jettySize=auto;html=1;exitX=1;exitY=0.5;exitDx=0;exitDy=0;entryX=0;entryY=0.5;entryDx=0;entryDy=0;" edge="1" parent="1" source="d4zinTMnPMJTzQzroGFV-72" target="d4zinTMnPMJTzQzroGFV-73">
          <mxGeometry relative="1" as="geometry" />
        </mxCell>
        <mxCell id="d4zinTMnPMJTzQzroGFV-72" value="&lt;div&gt;fitbitアプリ内&lt;/div&gt;GoogleWallet&lt;div&gt;ログアウト&lt;/div&gt;" style="rounded=1;whiteSpace=wrap;html=1;absoluteArcSize=1;arcSize=14;strokeWidth=2;fillColor=#1ba1e2;strokeColor=#006EAF;fontColor=#ffffff;" vertex="1" parent="1">
          <mxGeometry x="709" y="382" width="107" height="50" as="geometry" />
        </mxCell>
        <mxCell id="d4zinTMnPMJTzQzroGFV-77" style="edgeStyle=orthogonalEdgeStyle;rounded=0;orthogonalLoop=1;jettySize=auto;html=1;exitX=1;exitY=0.5;exitDx=0;exitDy=0;entryX=0.5;entryY=0;entryDx=0;entryDy=0;" edge="1" parent="1" source="d4zinTMnPMJTzQzroGFV-73" target="d4zinTMnPMJTzQzroGFV-17">
          <mxGeometry relative="1" as="geometry">
            <Array as="points">
              <mxPoint x="960" y="407" />
              <mxPoint x="960" y="265" />
              <mxPoint x="110" y="265" />
            </Array>
          </mxGeometry>
        </mxCell>
        <mxCell id="d4zinTMnPMJTzQzroGFV-73" value="&lt;div&gt;fitbitアプリ内&lt;br&gt;&lt;/div&gt;GoogleWallet&lt;div&gt;ログイン(再)&lt;/div&gt;" style="rounded=1;whiteSpace=wrap;html=1;absoluteArcSize=1;arcSize=14;strokeWidth=2;fillColor=#1ba1e2;strokeColor=#006EAF;fontColor=#ffffff;" vertex="1" parent="1">
          <mxGeometry x="833" y="382" width="107" height="50" as="geometry" />
        </mxCell>
        <mxCell id="d4zinTMnPMJTzQzroGFV-79" value="1ループ目" style="text;html=1;align=center;verticalAlign=middle;whiteSpace=wrap;rounded=0;" vertex="1" parent="1">
          <mxGeometry x="185" y="279" width="60" height="30" as="geometry" />
        </mxCell>
        <mxCell id="d4zinTMnPMJTzQzroGFV-80" value="2ループ目" style="text;html=1;align=center;verticalAlign=middle;whiteSpace=wrap;rounded=0;" vertex="1" parent="1">
          <mxGeometry x="689" y="358" width="60" height="30" as="geometry" />
        </mxCell>
        <mxCell id="d4zinTMnPMJTzQzroGFV-88" style="edgeStyle=orthogonalEdgeStyle;rounded=0;orthogonalLoop=1;jettySize=auto;html=1;exitX=1;exitY=0.5;exitDx=0;exitDy=0;entryX=0;entryY=0.5;entryDx=0;entryDy=0;" edge="1" parent="1" source="d4zinTMnPMJTzQzroGFV-82" target="d4zinTMnPMJTzQzroGFV-87">
          <mxGeometry relative="1" as="geometry" />
        </mxCell>
        <mxCell id="d4zinTMnPMJTzQzroGFV-96" style="edgeStyle=orthogonalEdgeStyle;rounded=0;orthogonalLoop=1;jettySize=auto;html=1;exitX=1;exitY=0.5;exitDx=0;exitDy=0;entryX=0;entryY=0.5;entryDx=0;entryDy=0;" edge="1" parent="1" source="d4zinTMnPMJTzQzroGFV-82" target="d4zinTMnPMJTzQzroGFV-95">
          <mxGeometry relative="1" as="geometry" />
        </mxCell>
        <mxCell id="d4zinTMnPMJTzQzroGFV-119" style="edgeStyle=orthogonalEdgeStyle;rounded=0;orthogonalLoop=1;jettySize=auto;html=1;exitX=1;exitY=0.5;exitDx=0;exitDy=0;entryX=0.5;entryY=1;entryDx=0;entryDy=0;" edge="1" parent="1" source="d4zinTMnPMJTzQzroGFV-82" target="d4zinTMnPMJTzQzroGFV-100">
          <mxGeometry relative="1" as="geometry">
            <Array as="points">
              <mxPoint x="175" y="656" />
              <mxPoint x="175" y="784" />
              <mxPoint x="909" y="784" />
            </Array>
          </mxGeometry>
        </mxCell>
        <mxCell id="d4zinTMnPMJTzQzroGFV-82" value="エラー?" style="rhombus;whiteSpace=wrap;html=1;fillColor=#ffe6cc;strokeColor=#d79b00;strokeWidth=2;" vertex="1" parent="1">
          <mxGeometry x="70" y="616" width="80" height="80" as="geometry" />
        </mxCell>
        <mxCell id="d4zinTMnPMJTzQzroGFV-84" style="edgeStyle=orthogonalEdgeStyle;rounded=0;orthogonalLoop=1;jettySize=auto;html=1;exitX=0.5;exitY=1;exitDx=0;exitDy=0;entryX=0.5;entryY=0;entryDx=0;entryDy=0;entryPerimeter=0;" edge="1" parent="1" source="d4zinTMnPMJTzQzroGFV-82" target="d4zinTMnPMJTzQzroGFV-5">
          <mxGeometry relative="1" as="geometry" />
        </mxCell>
        <mxCell id="d4zinTMnPMJTzQzroGFV-85" value="無" style="text;html=1;align=center;verticalAlign=middle;whiteSpace=wrap;rounded=0;" vertex="1" parent="1">
          <mxGeometry x="69" y="699" width="60" height="32" as="geometry" />
        </mxCell>
        <mxCell id="d4zinTMnPMJTzQzroGFV-90" style="edgeStyle=orthogonalEdgeStyle;rounded=0;orthogonalLoop=1;jettySize=auto;html=1;exitX=1;exitY=0.5;exitDx=0;exitDy=0;entryX=0;entryY=0.5;entryDx=0;entryDy=0;" edge="1" parent="1" source="d4zinTMnPMJTzQzroGFV-87" target="d4zinTMnPMJTzQzroGFV-89">
          <mxGeometry relative="1" as="geometry" />
        </mxCell>
        <mxCell id="d4zinTMnPMJTzQzroGFV-87" value="GoogleWallet内から&lt;div&gt;クレジットカード&lt;/div&gt;&lt;div&gt;情報を削除&lt;/div&gt;" style="rounded=1;whiteSpace=wrap;html=1;fillColor=#1ba1e2;fontColor=#ffffff;strokeColor=#006EAF;strokeWidth=2;" vertex="1" parent="1">
          <mxGeometry x="200" y="626" width="120" height="60" as="geometry" />
        </mxCell>
        <mxCell id="d4zinTMnPMJTzQzroGFV-98" style="edgeStyle=orthogonalEdgeStyle;rounded=0;orthogonalLoop=1;jettySize=auto;html=1;exitX=0.5;exitY=0;exitDx=0;exitDy=0;entryX=1;entryY=0.5;entryDx=0;entryDy=0;" edge="1" parent="1" source="d4zinTMnPMJTzQzroGFV-89" target="d4zinTMnPMJTzQzroGFV-68">
          <mxGeometry relative="1" as="geometry" />
        </mxCell>
        <mxCell id="d4zinTMnPMJTzQzroGFV-89" value="GoogleWallet内へ&lt;div&gt;クレジットカード&lt;/div&gt;&lt;div&gt;情報を再登録&lt;/div&gt;" style="rounded=1;whiteSpace=wrap;html=1;fillColor=#1ba1e2;fontColor=#ffffff;strokeColor=#006EAF;strokeWidth=2;" vertex="1" parent="1">
          <mxGeometry x="344" y="626" width="120" height="60" as="geometry" />
        </mxCell>
        <mxCell id="d4zinTMnPMJTzQzroGFV-92" value="リトライ" style="text;html=1;align=center;verticalAlign=middle;whiteSpace=wrap;rounded=0;" vertex="1" parent="1">
          <mxGeometry x="348" y="598" width="60" height="33" as="geometry" />
        </mxCell>
        <mxCell id="d4zinTMnPMJTzQzroGFV-93" value="1ループ目" style="text;html=1;align=center;verticalAlign=middle;whiteSpace=wrap;rounded=0;" vertex="1" parent="1">
          <mxGeometry x="196" y="602" width="60" height="30" as="geometry" />
        </mxCell>
        <mxCell id="d4zinTMnPMJTzQzroGFV-94" value="有" style="text;html=1;align=center;verticalAlign=middle;whiteSpace=wrap;rounded=0;" vertex="1" parent="1">
          <mxGeometry x="130" y="629" width="60" height="32" as="geometry" />
        </mxCell>
        <mxCell id="d4zinTMnPMJTzQzroGFV-97" style="edgeStyle=orthogonalEdgeStyle;rounded=0;orthogonalLoop=1;jettySize=auto;html=1;exitX=1;exitY=0.5;exitDx=0;exitDy=0;entryX=1;entryY=0.5;entryDx=0;entryDy=0;" edge="1" parent="1" source="d4zinTMnPMJTzQzroGFV-95" target="d4zinTMnPMJTzQzroGFV-68">
          <mxGeometry relative="1" as="geometry">
            <Array as="points">
              <mxPoint x="493" y="741" />
              <mxPoint x="493" y="537" />
            </Array>
          </mxGeometry>
        </mxCell>
        <mxCell id="d4zinTMnPMJTzQzroGFV-95" value="&quot;48時間以上&quot;&lt;div&gt;&lt;div&gt;そのまま放置&lt;/div&gt;&lt;/div&gt;&lt;div&gt;※ 再操作厳禁&lt;/div&gt;" style="rounded=1;whiteSpace=wrap;html=1;fillColor=#1ba1e2;fontColor=#ffffff;strokeColor=#006EAF;strokeWidth=2;" vertex="1" parent="1">
          <mxGeometry x="200" y="711" width="120" height="60" as="geometry" />
        </mxCell>
        <mxCell id="d4zinTMnPMJTzQzroGFV-99" value="2ループ目" style="text;html=1;align=center;verticalAlign=middle;whiteSpace=wrap;rounded=0;" vertex="1" parent="1">
          <mxGeometry x="196" y="686" width="60" height="30" as="geometry" />
        </mxCell>
        <mxCell id="d4zinTMnPMJTzQzroGFV-100" value="fitbit公式サポート&lt;div&gt;へ相談&lt;/div&gt;" style="rounded=1;whiteSpace=wrap;html=1;absoluteArcSize=1;arcSize=14;strokeWidth=2;fillColor=#1ba1e2;strokeColor=#006EAF;fontColor=#ffffff;" vertex="1" parent="1">
          <mxGeometry x="855" y="691" width="107" height="50" as="geometry" />
        </mxCell>
        <mxCell id="d4zinTMnPMJTzQzroGFV-104" value="&lt;div&gt;ループ2を何度か&lt;/div&gt;&lt;div&gt;試しても出来ない&lt;/div&gt;" style="text;html=1;align=center;verticalAlign=middle;whiteSpace=wrap;rounded=0;" vertex="1" parent="1">
          <mxGeometry x="784" y="753" width="143" height="30" as="geometry" />
        </mxCell>
        <mxCell id="d4zinTMnPMJTzQzroGFV-105" value="クレカセキュリティ&lt;div&gt;チェックフラグ&lt;/div&gt;&lt;div&gt;を初期化&lt;/div&gt;" style="shape=callout;whiteSpace=wrap;html=1;perimeter=calloutPerimeter;size=30;position=0.38;position2=0.84;direction=south;base=10;fillColor=#d5e8d4;strokeColor=#82b366;" vertex="1" parent="1">
          <mxGeometry x="317" y="691.5" width="146" height="47" as="geometry" />
        </mxCell>
        <mxCell id="d4zinTMnPMJTzQzroGFV-106" value="JR東に&lt;span style=&quot;background-color: transparent; color: light-dark(rgb(0, 0, 0), rgb(255, 255, 255));&quot;&gt;問い合わせても&lt;/span&gt;&lt;div&gt;追い返される&lt;br&gt;(fitbit Suicaは&lt;/div&gt;&lt;div&gt;モバイルSuicaではない)&lt;/div&gt;" style="shape=callout;whiteSpace=wrap;html=1;perimeter=calloutPerimeter;fillColor=#d5e8d4;strokeColor=#82b366;position2=0.72;direction=south;" vertex="1" parent="1">
          <mxGeometry x="635" y="146" width="174" height="83" as="geometry" />
        </mxCell>
        <mxCell id="d4zinTMnPMJTzQzroGFV-107" value="fitbitアプリの&lt;div&gt;バグにて&lt;span style=&quot;background-color: transparent; color: light-dark(rgb(0, 0, 0), rgb(255, 255, 255));&quot;&gt;上手く&lt;/span&gt;&lt;/div&gt;&lt;div&gt;&lt;span style=&quot;background-color: transparent; color: light-dark(rgb(0, 0, 0), rgb(255, 255, 255));&quot;&gt;出来ないことがある&lt;/span&gt;&lt;/div&gt;" style="shape=callout;whiteSpace=wrap;html=1;perimeter=calloutPerimeter;fillColor=#d5e8d4;strokeColor=#82b366;position2=0.19;base=16;size=58;position=0.38;" vertex="1" parent="1">
          <mxGeometry x="396" y="47.5" width="114" height="119.5" as="geometry" />
        </mxCell>
        <mxCell id="d4zinTMnPMJTzQzroGFV-108" value="エラーメッセージは&lt;div&gt;分かりづらい&lt;/div&gt;" style="shape=callout;whiteSpace=wrap;html=1;perimeter=calloutPerimeter;fillColor=#d5e8d4;strokeColor=#82b366;position2=0;base=17;size=38;position=0.32;direction=east;align=left;" vertex="1" parent="1">
          <mxGeometry x="132" y="570" width="116" height="68" as="geometry" />
        </mxCell>
        <mxCell id="d4zinTMnPMJTzQzroGFV-111" style="edgeStyle=orthogonalEdgeStyle;rounded=0;orthogonalLoop=1;jettySize=auto;html=1;exitX=1;exitY=0.5;exitDx=0;exitDy=0;entryX=0.5;entryY=0;entryDx=0;entryDy=0;entryPerimeter=0;strokeColor=#FF0000;dashed=1;" edge="1" parent="1" source="d4zinTMnPMJTzQzroGFV-82" target="d4zinTMnPMJTzQzroGFV-6">
          <mxGeometry relative="1" as="geometry">
            <Array as="points">
              <mxPoint x="170" y="656" />
              <mxPoint x="170" y="816" />
              <mxPoint x="1144" y="816" />
              <mxPoint x="1144" y="123" />
              <mxPoint x="110" y="123" />
            </Array>
          </mxGeometry>
        </mxCell>
        <mxCell id="d4zinTMnPMJTzQzroGFV-115" value="" style="group" vertex="1" connectable="0" parent="1">
          <mxGeometry x="590" y="486" width="450" height="152" as="geometry" />
        </mxCell>
        <mxCell id="d4zinTMnPMJTzQzroGFV-2" value="&lt;h1 style=&quot;margin-top: 0px;&quot;&gt;注釈)&lt;br&gt;当フローチャートは,&lt;br&gt;ユーザー有志(171RR)によるものであり,公式資料ではありません｡&lt;/h1&gt;" style="text;html=1;align=left;verticalAlign=top;whiteSpace=wrap;rounded=0;" vertex="1" parent="d4zinTMnPMJTzQzroGFV-115">
          <mxGeometry width="450" height="140" as="geometry" />
        </mxCell>
        <mxCell id="d4zinTMnPMJTzQzroGFV-3" value="当フローチャートは,&lt;span style=&quot;background-color: transparent; color: light-dark(rgb(0, 0, 0), rgb(255, 255, 255));&quot;&gt;描画ソフトウェアdraw.ioを用いて作成されました｡&lt;/span&gt;" style="text;html=1;align=left;verticalAlign=middle;whiteSpace=wrap;rounded=0;fontSize=12;" vertex="1" parent="d4zinTMnPMJTzQzroGFV-115">
          <mxGeometry y="122" width="430" height="30" as="geometry" />
        </mxCell>
        <mxCell id="d4zinTMnPMJTzQzroGFV-120" value="Suica発行&lt;div&gt;された&lt;span style=&quot;background-color: transparent; color: light-dark(rgb(0, 0, 0), rgb(255, 255, 255));&quot;&gt;にも関わらず,&lt;/span&gt;&lt;div&gt;失敗することがある｡&lt;/div&gt;&lt;/div&gt;&lt;div&gt;この場合,Suica&lt;/div&gt;&lt;div&gt;&lt;span style=&quot;background-color: transparent; color: light-dark(rgb(0, 0, 0), rgb(255, 255, 255));&quot;&gt;払戻手続&lt;/span&gt;&lt;span style=&quot;background-color: transparent; color: light-dark(rgb(0, 0, 0), rgb(255, 255, 255));&quot;&gt;からやり直す｡&lt;/span&gt;&lt;/div&gt;" style="shape=callout;whiteSpace=wrap;html=1;perimeter=calloutPerimeter;fillColor=#f8cecc;strokeColor=#b85450;position2=0.27;" vertex="1" parent="1">
          <mxGeometry x="989" y="699" width="135" height="116" as="geometry" />
        </mxCell>
        <mxCell id="d4zinTMnPMJTzQzroGFV-122" value="ここを&lt;div&gt;何度かループ&lt;/div&gt;" style="text;html=1;align=center;verticalAlign=middle;whiteSpace=wrap;rounded=0;" vertex="1" parent="1">
          <mxGeometry x="456" y="502" width="85" height="33" as="geometry" />
        </mxCell>
      </root>
    </mxGraphModel>
  </diagram>
</mxfile>
